PathFileType	4	(X/Y/Z)	c:/Users/goper/Files/vsCode/490R/osim_files/A06/A06_Slow_04.trc
DataRate	CameraRate	NumFrames	NumMarkers	Units                	OrigDataRate	OrigDataStartFrame	OrigNumFrames
120.00	120.00	8	36	mm	120.0	522	1390
                Frame#	Time	LPSIS			LASIS			LTH1			LTH2			LTH3			LTH4			LLFE			LMFE			LSH1			LSH2			LSH3			LSH4			LLMAL			LMMAL			LCAL			LMTP5			LTOE			LMTP1			RPSIS			RASIS			RTH1			RTH2			RTH3			RTH4			RLFE			RMFE			RSH1			RSH2			RSH3			RSH4			RLMAL			RMMAL			RCAL			RMTP1			RTOE			RMTP5		
		X1	Y1	Z1	X2	Y2	Z2	X3	Y3	Z3	X4	Y4	Z4	X5	Y5	Z5	X6	Y6	Z6	X7	Y7	Z7	X8	Y8	Z8	X9	Y9	Z9	X10	Y10	Z10	X11	Y11	Z11	X12	Y12	Z12	X13	Y13	Z13	X14	Y14	Z14	X15	Y15	Z15	X16	Y16	Z16	X17	Y17	Z17	X18	Y18	Z18	X19	Y19	Z19	X20	Y20	Z20	X21	Y21	Z21	X22	Y22	Z22	X23	Y23	Z23	X24	Y24	Z24	X25	Y25	Z25	X26	Y26	Z26	X27	Y27	Z27	X28	Y28	Z28	X29	Y29	Z29	X30	Y30	Z30	X31	Y31	Z31	X32	Y32	Z32	X33	Y33	Z33	X34	Y34	Z34	X35	Y35	Z35	X36	Y36	Z36

522	4.34167	1188.13245	1009.75177	346.12256	999.70544	946.43530	401.57016	1103.31250	591.22070	426.02084	1097.32007	549.34412	420.67126	1039.02612	588.76331	417.08722	1044.31458	547.73163	412.73560	1075.19482	475.64627	402.88358	1068.55029	469.99323	295.53214	1143.04382	386.78876	414.50433	1140.59290	340.84653	418.63782	1079.97021	382.32855	407.90436	1087.64392	338.66650	410.75195	1158.57214	90.11572	366.04156	1139.59546	105.87583	282.26147	1223.30115	85.15806	312.95929	1043.03113	43.44811	384.33490	1001.88977	64.85130	329.33206	1028.49500	60.46600	288.23349	1193.33606	1030.05371	217.37514	1022.08557	1002.93951	151.35559	0.00000	0.00000	0.00000	976.71991	582.91437	116.27190	1044.74414	610.41418	107.48253	1027.86536	571.21918	107.99478	976.92676	468.13806	135.78824	980.82825	466.20248	225.85048	1029.96851	320.02792	142.82117	1038.98779	272.86697	143.82207	971.90210	303.37372	158.41640	987.75848	257.40512	153.03957	1068.64368	137.83812	129.22160	1059.82947	136.93619	215.11801	1130.92664	126.91302	174.06842	938.15344	67.63953	215.20802	918.34546	77.81376	175.96007	945.31537	68.67452	125.12383
523	4.35000	1180.99707	1009.10388	346.45676	992.24152	946.70490	401.70972	1098.86633	591.27081	426.09015	1093.03979	549.58746	420.64594	1034.75146	588.11383	417.07840	1040.13989	547.44690	412.92969	1072.72583	475.25110	402.93475	1065.83508	469.42313	295.11118	1141.81104	387.92545	413.96835	1139.28674	341.59833	418.38260	1077.86719	382.06491	407.91705	1084.34766	340.12247	409.91150	1158.44446	90.15199	366.07999	1139.41492	106.01251	282.24930	1223.20850	85.32492	312.96591	1042.90259	43.16520	384.42761	1001.81976	64.64552	329.38916	1026.24548	58.74483	289.17557	1186.22766	1029.23254	217.74713	1018.85956	1002.42578	150.04727	0.00000	0.00000	0.00000	969.16931	582.65930	115.78815	1036.46570	609.87427	107.49786	1019.45905	570.70996	107.88719	968.23956	467.65848	135.77574	971.75507	465.28171	225.69737	1013.84460	317.00992	142.73888	1020.44318	269.46426	143.78261	954.49182	302.58200	159.06726	968.53461	256.53104	153.14737	1043.05774	132.94165	129.33365	1034.20581	132.29823	215.75334	1104.74780	119.03052	174.25377	909.32202	69.72859	215.51604	890.34094	80.61923	176.46974	915.60303	69.15965	126.30620
524	4.35833	1173.77722	1008.35944	346.69592	982.79742	946.38281	402.75452	1094.50378	591.75879	426.09250	1088.91724	549.53510	420.70715	1035.14563	586.73627	418.75177	1035.99121	546.47784	412.87616	1069.07996	474.62466	402.63171	1063.15967	469.06689	294.84784	1139.60400	388.17810	413.86816	1137.41650	341.78674	418.28326	1075.74353	382.22620	408.27704	1081.97400	339.58865	409.26846	1158.42053	90.14765	366.14670	1139.18945	106.10255	282.25934	1223.13867	85.49553	312.96387	1042.82324	43.07209	384.46588	1001.52960	63.66795	329.50449	1026.05847	58.55224	289.26328	1179.02161	1028.34192	217.97874	1009.69568	1003.58301	150.93301	0.00000	0.00000	0.00000	960.94165	582.05334	115.71252	1028.80835	609.38586	107.84635	1011.32959	570.03015	107.84711	960.04681	466.93448	135.13000	963.32263	464.59421	225.33768	997.45251	314.06433	143.16316	1001.95044	266.24817	143.71701	938.35583	303.29535	158.40871	949.55579	255.96346	153.15910	1017.53918	128.82516	129.63612	1009.76996	129.77531	215.41776	1078.29834	111.77617	174.68034	880.70050	72.71245	216.05226	862.22058	84.13825	176.85724	887.08563	71.15580	126.50605
525	4.36667	1166.61230	1007.53119	346.79010	975.55811	945.63373	403.09900	1089.92773	591.73578	426.10754	1084.67566	549.08447	420.88104	1025.40881	587.96295	416.30466	1032.46899	545.81732	412.45206	1066.30872	474.65015	402.72018	1060.50708	468.70184	294.59573	1135.90247	387.20703	414.10593	1135.52539	342.00891	418.14813	1073.46655	381.56717	407.86969	1080.20312	339.16251	409.42218	1158.25378	90.22536	366.15207	1138.96570	106.18403	282.22092	1223.04700	85.66948	312.95981	1042.82520	42.99257	384.48972	1001.42908	63.49028	329.48618	1025.92603	58.33307	289.21350	1171.86609	1027.38245	218.07870	1000.89661	1001.41260	151.95641	0.00000	0.00000	0.00000	952.98877	581.33691	115.65956	1019.94391	607.93762	107.17739	1003.30054	569.21637	107.73663	951.69086	466.02316	135.22191	955.27356	463.57312	225.06985	981.47632	311.44183	143.01936	983.60980	263.59174	143.79729	921.50098	303.04926	159.06363	930.83636	255.79214	153.23180	992.10199	125.38248	129.85204	983.59229	125.75140	216.21719	1051.79358	105.00654	174.72861	852.83624	76.29731	216.28204	834.48999	88.56230	177.66414	859.22974	74.84457	127.11938
526	4.37500	1159.35254	1006.59808	346.77155	968.33929	945.14441	403.27771	1086.17688	592.18695	426.24915	1080.47253	549.01044	420.84070	1020.82013	587.45355	415.85800	1028.77344	545.56891	412.41962	1063.10876	473.98154	402.38303	1057.69092	468.13824	294.34232	1133.62366	387.49155	413.93463	1133.57056	342.23077	417.98279	1071.65613	381.86285	408.14221	1078.68042	339.47864	409.69870	1158.08777	90.30576	366.13837	1138.75732	106.29134	282.20566	1222.94397	85.82928	312.93701	1042.80579	42.95981	384.50760	1001.40417	63.35051	329.44684	1025.93652	58.34823	289.14099	1164.56335	1026.31689	218.04915	994.75031	1001.72180	151.21440	0.00000	0.00000	0.00000	944.95996	580.36487	115.65910	1011.99261	606.94226	107.18555	995.30743	568.23999	107.67129	943.78229	464.98056	134.64099	947.35284	462.46747	224.76375	965.60193	309.05252	142.96284	965.40070	261.08325	143.80647	905.31989	303.55005	159.11821	912.26984	255.80664	153.37318	966.78278	122.56782	129.99965	959.28894	124.31350	216.13553	1025.82410	99.60246	174.80400	825.52020	80.77454	216.80464	807.68085	93.61771	178.14757	831.55206	78.47919	127.62978
527	4.38333	1152.15515	1005.63885	346.65005	960.95947	944.63550	403.51321	1081.38293	592.10059	426.22141	1076.11804	548.89661	420.80743	1015.99200	586.40143	415.53180	1024.49011	544.87317	412.04791	1059.90063	473.61176	402.24936	1055.01538	467.96924	293.88788	1131.65137	387.90082	413.61868	1131.54919	342.52023	417.76819	1068.54846	380.63489	406.87616	1076.12744	338.79861	409.09125	1157.88501	90.40093	366.09506	1138.52832	106.44029	282.17264	1222.84900	86.01875	312.92856	1042.71350	42.92288	384.50977	1001.31586	63.23360	329.41653	1025.87695	58.31464	289.12042	1157.18164	1025.13904	217.89815	984.99530	1000.53693	152.20284	0.00000	0.00000	0.00000	936.99377	579.25574	115.79932	1004.07471	605.84235	107.18348	987.32452	567.17004	107.59466	935.57172	463.78726	134.71095	939.60822	461.42438	224.58871	949.74115	306.78571	142.89909	947.26465	259.02847	143.88202	889.57703	304.42972	159.14163	894.25616	256.84827	153.37175	941.78741	120.72327	130.39078	934.63159	122.59218	216.36021	999.38275	94.66208	175.06206	798.83441	85.88823	217.40079	781.52710	99.63142	178.94748	804.51385	83.36723	128.28552
528	4.39167	1144.82373	1004.51624	346.41037	953.72339	944.22382	403.66592	1075.25293	591.14655	426.17517	1071.73718	548.72107	420.69336	1010.51147	584.97351	415.14603	1019.43842	544.04382	411.59119	1057.37683	473.56436	402.23737	1052.08911	467.53107	293.46753	1128.88953	388.10245	413.61047	1129.52747	342.80127	417.53268	1066.71594	380.54773	406.45300	1073.63281	338.40115	409.11920	1157.70447	90.52062	366.02536	1138.31458	106.57919	282.09906	1222.18896	85.83994	313.01740	1042.73315	42.88798	384.54706	1001.28961	63.08577	329.41446	1025.78699	58.19664	289.15756	1149.83862	1023.91687	217.63051	978.78821	999.30872	152.39284	0.00000	0.00000	0.00000	928.24072	578.48114	115.53319	996.09283	604.64795	107.17296	979.27386	565.95880	107.59435	927.50116	462.49890	134.14696	931.42993	459.81113	224.28586	934.07452	305.00055	142.86447	929.37695	257.40253	143.98938	873.90070	305.38235	159.32173	876.14691	257.25949	153.73433	917.04663	119.42863	130.67171	910.29181	122.00481	216.81171	973.85590	90.72826	175.28590	773.10919	91.66319	217.99313	756.23651	106.68774	179.45235	778.19739	88.88689	129.24742
529	4.40000	1137.42029	1003.29541	346.10245	946.25574	943.13794	404.04651	1071.47192	591.81067	426.11673	1067.45142	548.92523	420.49924	1006.42468	584.98071	414.74979	1015.48456	543.22583	411.00360	1053.63525	473.17325	401.99118	1049.14819	467.39603	292.92868	1126.22729	388.20227	413.13483	1127.32080	342.96545	417.27945	1066.34656	378.21509	407.38022	1072.21033	338.15778	408.85471	1157.46790	90.61798	365.93536	1138.04407	106.64474	282.05222	1222.05530	86.12426	313.07822	1042.66663	42.79227	384.56622	1001.20038	62.86947	329.45251	1025.75427	58.12799	289.15631	1142.32117	1022.53204	217.31853	970.85358	997.82745	152.42300	0.00000	0.00000	0.00000	919.46277	577.50763	116.05918	987.94421	603.34955	107.29554	970.91724	564.69250	107.56175	918.55798	461.17661	134.29309	922.93341	458.44363	224.13132	918.50739	303.79617	142.98349	911.66772	256.18753	144.09154	858.90363	307.31726	158.88913	858.36572	258.45718	154.01028	893.19263	118.71738	131.14659	886.42200	121.66146	217.17873	948.22076	87.46717	175.79089	748.35773	98.07929	218.72400	732.26001	113.36121	180.17114	752.83838	94.91402	129.87599
